# xmcd
#
# Track frame offsets: 
#        151
#        18064
#        28797
#        47579
#        62878
#        74488
#        87898
#        99596
#        112098
#        132074
#        144575
#        161032
#        175052
#        186339
#        200288
#
# Disc length: 2872 seconds
#
# Revision: 0
# Processed by: cddbd v1.5.1PL0 Copyright (c) Steve Scherf et al.
# Submitted via: ExactAudioCopy v0.95b2
#
DISCID=d00b360f
DTITLE=YACHT-MASTER RECORDS - COUNTRY DERRY (HDCD) vol.2
DYEAR=2002
DGENRE=
TTITLE0=YESTERDAY ONCE MORE
TTITLE1=FIVE HUNDRED MILES
TTITLE2=LET IT BE
TTITLE3=RHINESTONE COWBOY
TTITLE4=DIANA
TTITLE5=HOLIDAY
TTITLE6=I'D LIKE TO TEACH THE WORLD TO SING
TTITLE7=AS TEAR GO BY
TTITLE8=I JUST CALLED TO SAY I LOVE YOU
TTITLE9=ME AND YOU AND A DOG NAMED BOO
TTITLE10=UNCHAINED MELODY
TTITLE11=PRETTY WOMAN
TTITLE12=I WANT TO HOLD YOUR HAND
TTITLE13=AULD LANG SYNE
TTITLE14=SCARBOROUGH FAIR
EXTD=
EXTT0=
EXTT1=
EXTT2=
EXTT3=
EXTT4=
EXTT5=
EXTT6=
EXTT7=
EXTT8=
EXTT9=
EXTT10=
EXTT11=
EXTT12=
EXTT13=
EXTT14=
PLAYORDER=
